<svg xmlns="http://www.w3.org/2000/svg" viewBox="0 0 22 22">
  <g fill="none" stroke="#000" stroke-linecap="round" stroke-linejoin="round">
    <path stroke-width="1.7" d="M5.4 3.2h6.7l3.1 3.1v11.4a1.7 1.7 0 0 1-1.7 1.7H5.4a1.7 1.7 0 0 1-1.7-1.7V4.9a1.7 1.7 0 0 1 1.7-1.7Z"/>
    <path stroke-width="1.7" d="M12 3.4v3.4h3.1"/>
    <path stroke-width="1.4" d="M6.6 9.3h4.2M6.6 12h3.2"/>
    <path stroke-width="1.8" d="M8.4 10.1h9.3a1.7 1.7 0 0 1 1.7 1.7v4.3a1.7 1.7 0 0 1-1.7 1.7h-3.1l-2 2-2-2H8.4a1.7 1.7 0 0 1-1.7-1.7v-4.3a1.7 1.7 0 0 1 1.7-1.7Z"/>
    <path stroke-width="1.3" d="M9.8 12.7h4.6M9.8 15h3.2"/>
    <path stroke-width="1.4" d="M16.8 13.1h.1"/>
  </g>
</svg>
